<svg width="24" height="24" viewBox="0 0 24 24" fill="none" xmlns="http://www.w3.org/2000/svg">
<path fill-rule="evenodd" clip-rule="evenodd" d="M14.4 2.40002C14.6648 2.39994 14.9223 2.48746 15.1322 2.64895C15.342 2.81044 15.4926 3.03682 15.5604 3.29282L16.9752 8.64002L21 10.9608C21.1824 11.0661 21.3339 11.2176 21.4392 11.4001C21.5445 11.5825 21.6 11.7894 21.6 12C21.6 12.2107 21.5445 12.4176 21.4392 12.6C21.3339 12.7824 21.1824 12.9339 21 13.0392L16.9752 15.3612L15.5592 20.7072C15.4913 20.963 15.3408 21.1891 15.131 21.3504C14.9212 21.5118 14.664 21.5992 14.3994 21.5992C14.1348 21.5992 13.8776 21.5118 13.6678 21.3504C13.4581 21.1891 13.3075 20.963 13.2396 20.7072L11.8248 15.36L7.80002 13.0392C7.61761 12.9339 7.46614 12.7824 7.36083 12.6C7.25552 12.4176 7.20007 12.2107 7.20007 12C7.20007 11.7894 7.25552 11.5825 7.36083 11.4001C7.46614 11.2176 7.61761 11.0661 7.80002 10.9608L11.8248 8.63882L13.2408 3.29282C13.3086 3.03702 13.459 2.81078 13.6686 2.64931C13.8783 2.48785 14.1354 2.4002 14.4 2.40002Z" fill="#2F80ED"/>
<path d="M6.84855 14.7515C6.62351 14.5265 6.31828 14.4 6.00002 14.4C5.68177 14.4 5.37654 14.5265 5.1515 14.7515C4.92645 14.9765 4.80002 15.2818 4.80002 15.6V16.8H3.60002C3.28176 16.8 2.97654 16.9265 2.7515 17.1515C2.52645 17.3765 2.40002 17.6818 2.40002 18C2.40002 18.3183 2.52645 18.6235 2.7515 18.8486C2.97654 19.0736 3.28176 19.2 3.60002 19.2H4.80002V20.4C4.80002 20.7183 4.92645 21.0235 5.1515 21.2486C5.37654 21.4736 5.68177 21.6 6.00002 21.6C6.31828 21.6 6.62351 21.4736 6.84855 21.2486C7.0736 21.0235 7.20003 20.7183 7.20003 20.4V19.2H8.40003C8.71829 19.2 9.02351 19.0736 9.24855 18.8486C9.4736 18.6235 9.60003 18.3183 9.60003 18C9.60003 17.6818 9.4736 17.3765 9.24855 17.1515C9.02351 16.9265 8.71829 16.8 8.40003 16.8H7.20003V15.6C7.20003 15.2818 7.0736 14.9765 6.84855 14.7515Z" fill="#2F80ED" fill-opacity="0.5"/>
<path d="M6.84855 2.7515C6.62351 2.52645 6.31828 2.40002 6.00002 2.40002C5.68177 2.40002 5.37654 2.52645 5.1515 2.7515C4.92645 2.97654 4.80002 3.28176 4.80002 3.60002V4.80002H3.60002C3.28176 4.80002 2.97654 4.92645 2.7515 5.1515C2.52645 5.37654 2.40002 5.68176 2.40002 6.00002C2.40002 6.31828 2.52645 6.62351 2.7515 6.84855C2.97654 7.0736 3.28176 7.20002 3.60002 7.20002H4.80002V8.40002C4.80002 8.71828 4.92645 9.02351 5.1515 9.24855C5.37654 9.4736 5.68177 9.60002 6.00002 9.60002C6.31828 9.60002 6.62351 9.4736 6.84855 9.24855C7.0736 9.02351 7.20003 8.71828 7.20003 8.40002V7.20002H8.40003C8.71829 7.20002 9.02351 7.0736 9.24855 6.84855C9.4736 6.62351 9.60003 6.31828 9.60003 6.00002C9.60003 5.68176 9.4736 5.37654 9.24855 5.1515C9.02351 4.92645 8.71829 4.80002 8.40003 4.80002H7.20003V3.60002C7.20003 3.28176 7.0736 2.97654 6.84855 2.7515Z" fill="#2F80ED" fill-opacity="0.5"/>
</svg>
