<svg width="20" height="20" viewBox="0 0 20 20" xmlns="http://www.w3.org/2000/svg">
    <path fill-rule="evenodd" clip-rule="evenodd" d="M12.586 4.58592C12.7705 4.3949 12.9912 4.24254 13.2352 4.13772C13.4792 4.0329 13.7417 3.97773 14.0072 3.97542C14.2728 3.97311 14.5361 4.02371 14.7819 4.12428C15.0277 4.22484 15.251 4.37334 15.4388 4.56113C15.6266 4.74892 15.7751 4.97222 15.8757 5.21801C15.9762 5.4638 16.0268 5.72716 16.0245 5.99272C16.0222 6.25828 15.967 6.52072 15.8622 6.76473C15.7574 7.00874 15.605 7.22943 15.414 7.41392L12.414 10.4139C12.039 10.7889 11.5303 10.9995 11 10.9995C10.4697 10.9995 9.96108 10.7889 9.58602 10.4139C9.39742 10.2318 9.14482 10.131 8.88262 10.1332C8.62042 10.1355 8.36961 10.2407 8.1842 10.4261C7.99879 10.6115 7.89362 10.8623 7.89135 11.1245C7.88907 11.3867 7.98986 11.6393 8.17202 11.8279C8.92213 12.5778 9.93936 12.9991 11 12.9991C12.0607 12.9991 13.0779 12.5778 13.828 11.8279L16.828 8.82792C17.5567 8.07351 17.9598 7.0631 17.9507 6.01431C17.9416 4.96553 17.5209 3.96228 16.7793 3.22065C16.0377 2.47901 15.0344 2.05834 13.9856 2.04922C12.9368 2.04011 11.9264 2.44329 11.172 3.17192L9.67202 4.67192C9.57651 4.76417 9.50033 4.87451 9.44792 4.99652C9.39551 5.11852 9.36792 5.24974 9.36677 5.38252C9.36562 5.5153 9.39092 5.64698 9.4412 5.76987C9.49148 5.89277 9.56573 6.00442 9.65962 6.09831C9.75352 6.19221 9.86517 6.26646 9.98806 6.31674C10.111 6.36702 10.2426 6.39232 10.3754 6.39117C10.5082 6.39002 10.6394 6.36243 10.7614 6.31002C10.8834 6.25761 10.9938 6.18143 11.086 6.08592L12.586 4.58592V4.58592ZM7.58602 9.58592C7.96107 9.21098 8.46969 9.00035 9.00002 9.00035C9.53035 9.00035 10.039 9.21098 10.414 9.58592C10.5063 9.68143 10.6166 9.75761 10.7386 9.81002C10.8606 9.86243 10.9918 9.89002 11.1246 9.89117C11.2574 9.89232 11.3891 9.86702 11.512 9.81674C11.6349 9.76646 11.7465 9.69221 11.8404 9.59832C11.9343 9.50442 12.0086 9.39277 12.0588 9.26987C12.1091 9.14698 12.1344 9.0153 12.1333 8.88252C12.1321 8.74974 12.1045 8.61852 12.0521 8.49652C11.9997 8.37451 11.9235 8.26417 11.828 8.17192C11.0779 7.42204 10.0607 7.00077 9.00002 7.00077C7.93936 7.00077 6.92213 7.42204 6.17202 8.17192L3.17202 11.1719C2.78998 11.5409 2.48525 11.9823 2.27561 12.4703C2.06598 12.9583 1.95563 13.4832 1.95102 14.0143C1.9464 14.5454 2.04761 15.0722 2.24873 15.5637C2.44986 16.0553 2.74687 16.5019 3.12244 16.8775C3.49801 17.2531 3.94462 17.5501 4.4362 17.7512C4.92779 17.9523 5.45451 18.0535 5.98562 18.0489C6.51674 18.0443 7.04162 17.934 7.52964 17.7243C8.01765 17.5147 8.45903 17.21 8.82802 16.8279L10.328 15.3279C10.4235 15.2357 10.4997 15.1253 10.5521 15.0033C10.6045 14.8813 10.6321 14.7501 10.6333 14.6173C10.6344 14.4845 10.6091 14.3529 10.5588 14.23C10.5086 14.1071 10.4343 13.9954 10.3404 13.9015C10.2465 13.8076 10.1349 13.7334 10.012 13.6831C9.88908 13.6328 9.7574 13.6075 9.62462 13.6087C9.49184 13.6098 9.36062 13.6374 9.23862 13.6898C9.11661 13.7422 9.00627 13.8184 8.91402 13.9139L7.41402 15.4139C7.22953 15.6049 7.00884 15.7573 6.76483 15.8621C6.52082 15.9669 6.25838 16.0221 5.99282 16.0244C5.72726 16.0267 5.4639 15.9761 5.21811 15.8756C4.97232 15.775 4.74902 15.6265 4.56123 15.4387C4.37344 15.2509 4.22494 15.0276 4.12438 14.7818C4.02381 14.536 3.97321 14.2727 3.97552 14.0071C3.97783 13.7416 4.033 13.4791 4.13782 13.2351C4.24263 12.9911 4.395 12.7704 4.58602 12.5859L7.58602 9.58592Z" fill="white"/>
</svg>
