<svg width="24" height="24" viewBox="0 0 24 24" xmlns="http://www.w3.org/2000/svg">
    <path fill-rule="evenodd" clip-rule="evenodd" d="M12 24C18.6274 24 24 18.6274 24 12C24 5.37258 18.6274 0 12 0C5.37258 0 0 5.37258 0 12C0 18.6274 5.37258 24 12 24ZM1 12L1.00001 11.9823C4.66971 11.9225 6.83674 11.66 8.48201 10.508C9.27034 9.95601 9.95601 9.27034 10.508 8.48201C11.66 6.83674 11.9225 4.66971 11.9823 1.00001L12 1L12.0177 1.00001C12.0775 4.66971 12.34 6.83674 13.492 8.48201C14.044 9.27034 14.7297 9.95601 15.518 10.508C17.1633 11.66 19.3303 11.9225 23 11.9823L23 12L23 12.0177C19.3303 12.0775 17.1633 12.34 15.518 13.492C14.7297 14.044 14.044 14.7297 13.492 15.518C12.34 17.1633 12.0775 19.3303 12.0177 23L12 23L11.9823 23C11.9225 19.3303 11.66 17.1633 10.508 15.518C9.95601 14.7297 9.27034 14.044 8.48201 13.492C6.83674 12.34 4.66971 12.0775 1.00001 12.0177L1 12Z" />
</svg>
