<svg width="73" height="14" viewBox="0 0 73 14" 
    xmlns="http://www.w3.org/2000/svg">
    <path d="M4.374 13.552C3.45 13.552 2.61 13.396 1.854 13.084C1.098 12.76 0.48 12.298 0 11.698L1.944 9.394C2.616 10.27 3.342 10.708 4.122 10.708C4.638 10.708 5.028 10.552 5.292 10.24C5.568 9.928 5.706 9.472 5.706 8.872V3.454H1.35V0.699998H9.234V8.656C9.234 10.288 8.82 11.512 7.992 12.328C7.176 13.144 5.97 13.552 4.374 13.552Z" fill="white" fill-opacity="0.95"/>
    <path d="M17.4535 13.552C15.5815 13.552 14.1235 13.042 13.0795 12.022C12.0475 11.002 11.5315 9.556 11.5315 7.684V0.699998H15.0955V7.576C15.0955 9.592 15.8935 10.6 17.4895 10.6C19.0735 10.6 19.8655 9.592 19.8655 7.576V0.699998H23.3755V7.684C23.3755 9.556 22.8535 11.002 21.8095 12.022C20.7775 13.042 19.3255 13.552 17.4535 13.552Z" fill="white" fill-opacity="0.95"/>
    <path d="M30.2179 13.552C29.1979 13.552 28.2079 13.426 27.2479 13.174C26.2879 12.922 25.5079 12.586 24.9079 12.166L26.0779 9.538C26.6419 9.91 27.2959 10.21 28.0399 10.438C28.7839 10.666 29.5159 10.78 30.2359 10.78C31.6039 10.78 32.2879 10.438 32.2879 9.754C32.2879 9.394 32.0899 9.13 31.6939 8.962C31.3099 8.782 30.6859 8.596 29.8219 8.404C28.8739 8.2 28.0819 7.984 27.4459 7.756C26.8099 7.516 26.2639 7.138 25.8079 6.622C25.3519 6.106 25.1239 5.41 25.1239 4.534C25.1239 3.766 25.3339 3.076 25.7539 2.464C26.1739 1.84 26.7979 1.348 27.6259 0.987998C28.4659 0.627998 29.4919 0.447998 30.7039 0.447998C31.5319 0.447998 32.3479 0.543998 33.1519 0.735999C33.9559 0.915998 34.6639 1.186 35.2759 1.546L34.1779 4.192C32.9779 3.544 31.8139 3.22 30.6859 3.22C29.9779 3.22 29.4619 3.328 29.1379 3.544C28.8139 3.748 28.6519 4.018 28.6519 4.354C28.6519 4.69 28.8439 4.942 29.2279 5.11C29.6119 5.278 30.2299 5.452 31.0819 5.632C32.0419 5.836 32.8339 6.058 33.4579 6.298C34.0939 6.526 34.6399 6.898 35.0959 7.414C35.5639 7.918 35.7979 8.608 35.7979 9.484C35.7979 10.24 35.5879 10.924 35.1679 11.536C34.7479 12.148 34.1179 12.64 33.2779 13.012C32.4379 13.372 31.4179 13.552 30.2179 13.552Z" fill="white" fill-opacity="0.95"/>
    <path d="M39.9504 3.526H36.0804V0.699998H47.3664V3.526H43.5144V13.3H39.9504V3.526Z" fill="white" fill-opacity="0.95"/>
    <path d="M58.8102 10.546V13.3H48.6942V0.699998H58.5762V3.454H52.2222V5.578H57.8202V8.242H52.2222V10.546H58.8102Z" fill="white" fill-opacity="0.95"/>
    <path d="M66.296 9.952H64.352V13.3H60.788V0.699998H66.548C67.688 0.699998 68.678 0.891998 69.518 1.276C70.358 1.648 71.006 2.188 71.462 2.896C71.918 3.592 72.146 4.414 72.146 5.362C72.146 6.274 71.93 7.072 71.498 7.756C71.078 8.428 70.472 8.956 69.68 9.34L72.398 13.3H68.582L66.296 9.952ZM68.546 5.362C68.546 4.774 68.36 4.318 67.988 3.994C67.616 3.67 67.064 3.508 66.332 3.508H64.352V7.198H66.332C67.064 7.198 67.616 7.042 67.988 6.73C68.36 6.406 68.546 5.95 68.546 5.362Z" fill="white" fill-opacity="0.95"/>
</svg>
