<svg width="25" height="24" viewBox="0 0 25 24" fill="none" xmlns="http://www.w3.org/2000/svg">
	<path fill-rule="evenodd" clip-rule="evenodd" d="M12.278 0C12.4057 0 12.5334 0.00354416 12.6615 0.00709911C12.7261 0.00889289 12.7908 0.0106894 12.8557 0.0120348C12.9842 0.0146985 13.1115 0.0256164 13.2392 0.0365671C13.3038 0.0421083 13.3685 0.0476578 13.4335 0.0521507C14.2079 0.125061 14.9743 0.268275 15.7232 0.480053C17.2537 0.905828 18.6814 1.64353 19.9184 2.64765C21.1747 3.67047 22.192 4.96026 22.8979 6.42517C23.6038 7.89007 23.9809 9.49403 24.0024 11.1228C24.0024 11.3488 24.0024 11.5748 23.9918 11.7994C13.8601 11.552 12.1574 9.98083 11.8725 0H12.278ZM0.736462 7.96568C1.26572 6.51169 2.06893 5.17486 3.10174 4.02897C5.18533 1.72613 8.05481 0.303597 11.1344 0.0468019C11.2587 0.0359776 11.3865 0.0288041 11.5152 0.0215875C11.5772 0.0181058 11.6395 0.0146141 11.7016 0.0106976H11.7572C11.475 9.85781 9.80934 11.5119 0.0116391 11.7901C0.0513859 10.4846 0.296032 9.19379 0.736462 7.96568ZM7.82833 23.4397C6.31644 22.9309 4.92796 22.1058 3.75363 21.0184C2.5793 19.9311 1.64555 18.6059 1.01341 17.1295C0.304578 15.4813 -0.039982 13.6972 0.00368853 11.901C9.91005 12.1805 11.5055 13.8641 11.7612 23.9893C10.4282 24.0448 9.09619 23.8587 7.82833 23.4397ZM14.0389 23.6714C13.3801 22.604 13 21.3464 13 20C13 16.134 16.134 13 20 13C21.3445 13 22.6006 13.3791 23.667 14.0362C23.8369 13.3337 23.944 12.616 23.9865 11.8917C13.7581 12.1404 12.1296 13.7424 11.8646 23.9853C12.0832 23.9746 12.3018 23.9585 12.5191 23.9358C13.0317 23.8793 13.5392 23.7909 14.0389 23.6714Z" fill="black" fill-opacity="0.85"/>
	<circle cx="20" cy="20" r="4" fill="black" fill-opacity="0.85"/>
</svg>
