<svg width="25" height="24" viewBox="0 0 25 24" fill="none" xmlns="http://www.w3.org/2000/svg">
	<path d="M12.278 0C12.4701 0 12.6623 0.00802318 12.8557 0.0120348C13.0492 0.0160464 13.24 0.0387787 13.4335 0.0521507C14.2079 0.125061 14.9743 0.268275 15.7232 0.480053C17.2537 0.905829 18.6814 1.64353 19.9184 2.64765C21.1747 3.67047 22.192 4.96026 22.8979 6.42517C23.6038 7.89007 23.9809 9.49403 24.0024 11.1228C24.0024 11.3488 24.0024 11.5748 23.9918 11.7994C13.8601 11.552 12.1574 9.98083 11.8725 0H12.278ZM0.736462 7.96568C1.26572 6.51169 2.06893 5.17486 3.10174 4.02897C5.18533 1.72613 8.05481 0.303597 11.1344 0.0468019C11.3186 0.0307555 11.5108 0.0227323 11.7016 0.0106976H11.7572C11.475 9.85781 9.80934 11.5119 0.0116391 11.7901C0.0513859 10.4846 0.296032 9.19379 0.736462 7.96568V7.96568ZM7.82833 23.4397C6.31644 22.9309 4.92796 22.1058 3.75363 21.0184C2.5793 19.9311 1.64555 18.6059 1.01341 17.1295C0.304578 15.4813 -0.039982 13.6972 0.00368853 11.901C9.91005 12.1805 11.5055 13.8641 11.7612 23.9893C10.4282 24.0448 9.09619 23.8587 7.82833 23.4397V23.4397ZM23.096 15.7963C21.9032 18.7091 19.7327 21.1053 16.9648 22.5652C15.5813 23.2995 14.0731 23.7645 12.5191 23.9358C12.3018 23.9585 12.0832 23.9746 11.8646 23.9853C12.1296 13.7424 13.7581 12.1404 23.9865 11.8917C23.9078 13.2343 23.6068 14.5541 23.096 15.7963V15.7963Z" fill="black" fill-opacity="0.85"/>
</svg>
