<svg width="40" height="40" viewBox="0 0 40 40" fill="none" xmlns="http://www.w3.org/2000/svg">
    <path d="M20 20C19.1581 20 18.3162 19.8506 17.66 19.5519L8.41 15.3337C7.98687 15.1412 7 14.5781 7 13.515C7 12.4519 7.98688 11.89 8.41125 11.695L17.7413 7.44062C19.0269 6.85313 20.9669 6.85313 22.2531 7.44062L31.5888 11.695C32.0131 11.8881 33 12.4513 33 13.515C33 14.5788 32.0131 15.14 31.5888 15.3344L22.3388 19.5519C21.6838 19.8506 20.8419 20 20 20Z" fill="white" fill-opacity="0.9"/>
    <path d="M31.585 18.3891L30.6419 18L28.2188 19.0137L22.3438 21.4709C21.6875 21.7451 20.8438 21.8817 20.0037 21.8817C19.1637 21.8817 18.3206 21.7451 17.665 21.4709L11.7856 19.0137L9.36188 18L8.41062 18.3909C7.98687 18.5674 7 19.0857 7 20.0571C7 21.0286 7.98687 21.5474 8.41 21.724L17.66 25.5886C18.3125 25.8629 19.1556 26 20 26C20.8444 26 21.6838 25.8629 22.34 25.5891L31.5819 21.7257C32.0075 21.5491 33 21.0337 33 20.0571C33 19.0806 32.0144 18.5674 31.585 18.3891Z" fill="white" fill-opacity="0.4"/>
    <path d="M31.585 24.4371L30.6419 24L28.2188 25.1398L22.3438 27.9009C21.6875 28.2081 20.8438 28.3624 20.0037 28.3624C19.1637 28.3624 18.3206 28.2088 17.665 27.9009L11.7856 25.1366L9.36188 24L8.41062 24.4397C7.98687 24.6384 7 25.2214 7 26.3143C7 27.4071 7.98687 27.9902 8.41 28.1882L17.66 32.5333C18.3125 32.8406 19.1587 33 20 33C20.8413 33 21.68 32.8406 22.3363 32.5326L31.5812 28.1889C32.0075 27.9909 33 27.411 33 26.3143C33 25.2176 32.0144 24.6384 31.585 24.4371Z" fill="white" fill-opacity="0.2"/>
</svg>
