<svg width="40" height="40" viewBox="0 0 40 40" fill="none" xmlns="http://www.w3.org/2000/svg">
<path fill-rule="evenodd" clip-rule="evenodd" d="M7 27C7 28.1046 7.89543 29 9 29H31C32.1046 29 33 28.1046 33 27V17V16C33 14.8954 32.1046 14 31 14H9C7.89543 14 7 14.8954 7 16V17V27ZM4 13C4 10.2386 6.23858 8 9 8H31C33.7614 8 36 10.2386 36 13V27C36 29.7614 33.7614 32 31 32H9C6.23858 32 4 29.7614 4 27V13ZM9 12C9.55228 12 10 11.5523 10 11C10 10.4477 9.55228 10 9 10C8.44772 10 8 10.4477 8 11C8 11.5523 8.44772 12 9 12ZM14 11C14 11.5523 13.5523 12 13 12C12.4477 12 12 11.5523 12 11C12 10.4477 12.4477 10 13 10C13.5523 10 14 10.4477 14 11ZM17 12C17.5523 12 18 11.5523 18 11C18 10.4477 17.5523 10 17 10C16.4477 10 16 10.4477 16 11C16 11.5523 16.4477 12 17 12Z" fill="white" fill-opacity="0.4"/>
<g clip-path="url(#clip0)">
<path d="M33.49 19.4059L31.54 18.7927V19.6759C31.2967 19.8351 31.0842 20.04 30.9154 20.2811L30.9152 20.2814L25.3152 28.2814L25.3147 28.2821C25.0736 28.6269 24.9317 29.0312 24.9045 29.4511C24.8772 29.8709 24.9657 30.2901 25.1601 30.6632C25.3546 31.0363 25.6477 31.3488 26.0075 31.5669L26.0075 31.5669C26.3671 31.7849 26.7795 31.9001 27.2 31.9C27.2002 31.9 27.2005 31.9 27.2007 31.9H28.9L28.9 34.3991C28.9 34.3992 28.9 34.3994 28.9 34.3995C28.9 34.3997 28.9 34.3998 28.9 34.4C28.8999 34.8892 29.0558 35.3658 29.345 35.7603C29.6345 36.1552 30.0424 36.4473 30.5093 36.5944L30.9598 35.1636L30.5093 36.5944C30.9763 36.7414 31.478 36.7356 31.9414 36.5778C32.4042 36.4202 32.8047 36.1192 33.0849 35.7186C33.085 35.7185 33.0851 35.7183 33.0852 35.7181C33.0855 35.7177 33.0857 35.7174 33.086 35.717L38.6849 27.7186L38.6853 27.7179C38.9264 27.3731 39.0683 26.9688 39.0955 26.549C39.1228 26.1291 39.0344 25.7099 38.8399 25.3368C38.6454 24.9638 38.3523 24.6512 37.9925 24.4331L37.2578 25.6454L37.9925 24.4331C37.633 24.2152 37.2205 24.0999 36.8 24.1C36.7998 24.1 36.7996 24.1 36.7994 24.1L35.1 24.1L35.1 21.6001C35.1 21.6001 35.1 21.6 35.1 21.6C35.1 21.1106 34.9439 20.6339 34.6544 20.2393C34.3648 19.8447 33.9569 19.5527 33.49 19.4059Z" fill="white" stroke="#1B1B1B" stroke-width="3"/>
</g>
<defs>
<clipPath id="clip0">
<rect width="16" height="16" fill="white" transform="translate(24 20)"/>
</clipPath>
</defs>
</svg>
