<svg width="40" height="40" viewBox="0 0 40 40" fill="none" xmlns="http://www.w3.org/2000/svg">
<path fill-rule="evenodd" clip-rule="evenodd" d="M22.7501 9C23.0535 8.9999 23.3485 9.10019 23.589 9.28523C23.8295 9.47026 24.002 9.72966 24.0797 10.023L25.7008 16.15L30.3126 18.8092C30.5216 18.9299 30.6952 19.1035 30.8158 19.3125C30.9365 19.5216 31 19.7586 31 20C31 20.2414 30.9365 20.4784 30.8158 20.6875C30.6952 20.8965 30.5216 21.0701 30.3126 21.1908L25.7008 23.8514L24.0783 29.977C24.0005 30.2701 23.828 30.5292 23.5877 30.714C23.3473 30.8989 23.0526 30.9991 22.7494 30.9991C22.4462 30.9991 22.1515 30.8989 21.9111 30.714C21.6708 30.5292 21.4983 30.2701 21.4205 29.977L19.7993 23.85L15.1876 21.1908C14.9786 21.0701 14.805 20.8965 14.6843 20.6875C14.5636 20.4784 14.5001 20.2414 14.5001 20C14.5001 19.7586 14.5636 19.5216 14.6843 19.3125C14.805 19.1035 14.9786 18.9299 15.1876 18.8092L19.7993 16.1486L21.4218 10.023C21.4995 9.72989 21.6718 9.47066 21.912 9.28564C22.1522 9.10063 22.4469 9.00021 22.7501 9Z" fill="white" fill-opacity="0.9"/>
<path d="M14.0973 9.40273C13.8394 9.14487 13.4897 9 13.125 9C12.7603 9 12.4106 9.14487 12.1527 9.40273C11.8949 9.66059 11.75 10.0103 11.75 10.375V11.75H10.375C10.0103 11.75 9.66059 11.8949 9.40273 12.1527C9.14487 12.4106 9 12.7603 9 13.125C9 13.4897 9.14487 13.8394 9.40273 14.0973C9.66059 14.3551 10.0103 14.5 10.375 14.5H11.75V15.875C11.75 16.2397 11.8949 16.5894 12.1527 16.8473C12.4106 17.1051 12.7603 17.25 13.125 17.25C13.4897 17.25 13.8394 17.1051 14.0973 16.8473C14.3551 16.5894 14.5 16.2397 14.5 15.875V14.5H15.875C16.2397 14.5 16.5894 14.3551 16.8473 14.0973C17.1052 13.8394 17.25 13.4897 17.25 13.125C17.25 12.7603 17.1052 12.4106 16.8473 12.1527C16.5894 11.8949 16.2397 11.75 15.875 11.75H14.5V10.375C14.5 10.0103 14.3551 9.66059 14.0973 9.40273Z" fill="white" fill-opacity="0.4"/>
<path d="M14.0973 23.1527C13.8394 22.8949 13.4897 22.75 13.125 22.75C12.7603 22.75 12.4106 22.8949 12.1527 23.1527C11.8949 23.4106 11.75 23.7603 11.75 24.125V25.5H10.375C10.0103 25.5 9.66059 25.6449 9.40273 25.9027C9.14487 26.1606 9 26.5103 9 26.875C9 27.2397 9.14487 27.5894 9.40273 27.8473C9.66059 28.1051 10.0103 28.25 10.375 28.25H11.75V29.625C11.75 29.9897 11.8949 30.3394 12.1527 30.5973C12.4106 30.8551 12.7603 31 13.125 31C13.4897 31 13.8394 30.8551 14.0973 30.5973C14.3551 30.3394 14.5 29.9897 14.5 29.625V28.25H15.875C16.2397 28.25 16.5894 28.1051 16.8473 27.8473C17.1052 27.5894 17.25 27.2397 17.25 26.875C17.25 26.5103 17.1052 26.1606 16.8473 25.9027C16.5894 25.6449 16.2397 25.5 15.875 25.5H14.5V24.125C14.5 23.7603 14.3551 23.4106 14.0973 23.1527Z" fill="white" fill-opacity="0.4"/>
</svg>
