<svg width="108" height="84" viewBox="0 0 108 84" fill="none" xmlns="http://www.w3.org/2000/svg">
<circle cx="54" cy="16" r="16" fill="#1AA168" fill-opacity="0.15"/>
<circle cx="54" cy="16" r="12" fill="#1AA168" fill-opacity="0.4"/>
<rect y="76" width="32" height="8" rx="4" fill="white" fill-opacity="0.1"/>
<rect x="38" y="76" width="32" height="8" rx="4" fill="white" fill-opacity="0.1"/>
<rect x="76" y="76" width="32" height="8" rx="4" fill="white" fill-opacity="0.1"/>
<rect x="19" y="62" width="32" height="8" rx="4" fill="white" fill-opacity="0.25"/>
<rect x="57" y="62" width="32" height="8" rx="4" fill="white" fill-opacity="0.25"/>
<rect x="38" y="48" width="32" height="8" rx="4" fill="white" fill-opacity="0.4"/>
<circle cx="54" cy="16" r="8" fill="#1AA168"/>
<path d="M53.3768 20V18.9121C52.5951 18.8396 52.0035 18.636 51.6021 18.3013C51.2007 17.9609 51 17.523 51 16.9874H52.3521C52.3521 17.1604 52.4049 17.325 52.5106 17.4812C52.6232 17.6374 52.8028 17.7657 53.0493 17.8661C53.2958 17.9609 53.6197 18.0084 54.0211 18.0084C54.5493 18.0084 54.9507 17.9303 55.2254 17.7741C55.5 17.6123 55.6373 17.4086 55.6373 17.1632C55.6373 16.9456 55.5176 16.7643 55.2782 16.6192C55.0387 16.4742 54.6761 16.3849 54.1901 16.3515L53.5986 16.3096C52.8662 16.2594 52.2852 16.0865 51.8556 15.7908C51.4261 15.4951 51.2113 15.0767 51.2113 14.5356C51.2113 14.0446 51.3979 13.6569 51.7711 13.3724C52.1514 13.0823 52.6725 12.9038 53.3345 12.8368V12H54.5599V12.8452C55.2218 12.9233 55.7324 13.1241 56.0915 13.4477C56.4577 13.7713 56.6408 14.1925 56.6408 14.7113H55.2887C55.2887 14.4603 55.1761 14.2371 54.9507 14.0418C54.7254 13.8466 54.3803 13.749 53.9155 13.749C53.493 13.749 53.1655 13.8243 52.9331 13.9749C52.7007 14.1199 52.5845 14.3068 52.5845 14.5356C52.5845 14.7308 52.6725 14.9038 52.8486 15.0544C53.0317 15.205 53.3239 15.2943 53.7254 15.3222L54.3169 15.364C55.1268 15.4254 55.7746 15.6067 56.2606 15.9079C56.7535 16.2092 57 16.6276 57 17.1632C57 17.6653 56.7887 18.0697 56.3662 18.3766C55.9507 18.6778 55.3627 18.8591 54.6021 18.9205V20H53.3768Z" fill="#242424"/>
</svg>
