<svg width="296" height="104" viewBox="0 0 296 104" fill="none" xmlns="http://www.w3.org/2000/svg">
<circle cx="4" cy="4" r="4" fill="white" fill-opacity="0.1"/>
<circle cx="4" cy="28" r="4" fill="white" fill-opacity="0.1"/>
<circle cx="4" cy="52" r="4" fill="white" fill-opacity="0.1"/>
<circle cx="4" cy="76" r="4" fill="white" fill-opacity="0.1"/>
<circle cx="4" cy="100" r="4" fill="white" fill-opacity="0.1"/>
<circle cx="28" cy="4" r="4" fill="white" fill-opacity="0.1"/>
<circle cx="28" cy="28" r="4" fill="white" fill-opacity="0.1"/>
<circle cx="28" cy="52" r="4" fill="white" fill-opacity="0.1"/>
<circle cx="28" cy="76" r="4" fill="#EF8456"/>
<circle cx="28" cy="100" r="4" fill="white" fill-opacity="0.1"/>
<circle cx="52" cy="4" r="4" fill="white" fill-opacity="0.1"/>
<circle cx="52" cy="28" r="4" fill="#EF8456"/>
<circle cx="52" cy="52" r="4" fill="white" fill-opacity="0.1"/>
<circle cx="52" cy="76" r="4" fill="white" fill-opacity="0.1"/>
<circle cx="52" cy="100" r="4" fill="white" fill-opacity="0.1"/>
<circle cx="76" cy="4" r="4" fill="white" fill-opacity="0.1"/>
<circle cx="76" cy="28" r="4" fill="white" fill-opacity="0.1"/>
<circle cx="76" cy="52" r="4" fill="white" fill-opacity="0.1"/>
<circle cx="76" cy="76" r="4" fill="white" fill-opacity="0.1"/>
<circle cx="76" cy="100" r="4" fill="white" fill-opacity="0.1"/>
<circle cx="100" cy="4" r="4" fill="white" fill-opacity="0.1"/>
<circle cx="100" cy="28" r="4" fill="white" fill-opacity="0.1"/>
<circle cx="100" cy="52" r="4" fill="#EF8456"/>
<circle cx="100" cy="76" r="4" fill="white" fill-opacity="0.1"/>
<circle cx="100" cy="100" r="4" fill="white" fill-opacity="0.1"/>
<circle cx="124" cy="4" r="4" fill="white" fill-opacity="0.1"/>
<circle cx="124" cy="28" r="4" fill="white" fill-opacity="0.1"/>
<circle cx="124" cy="52" r="4" fill="white" fill-opacity="0.1"/>
<circle cx="124" cy="76" r="4" fill="white" fill-opacity="0.1"/>
<circle cx="124" cy="100" r="4" fill="white" fill-opacity="0.1"/>
<circle cx="148" cy="4" r="4" fill="white" fill-opacity="0.1"/>
<circle cx="148" cy="28" r="4" fill="white" fill-opacity="0.1"/>
<circle cx="148" cy="52" r="4" fill="white" fill-opacity="0.1"/>
<circle cx="148" cy="76" r="4" fill="#EF8456"/>
<circle cx="148" cy="100" r="4" fill="white" fill-opacity="0.1"/>
<circle cx="172" cy="4" r="4" fill="#EF8456"/>
<circle cx="172" cy="28" r="4" fill="white" fill-opacity="0.1"/>
<circle cx="172" cy="52" r="4" fill="white" fill-opacity="0.1"/>
<circle cx="172" cy="76" r="4" fill="white" fill-opacity="0.1"/>
<circle cx="172" cy="100" r="4" fill="white" fill-opacity="0.1"/>
<circle cx="196" cy="4" r="4" fill="white" fill-opacity="0.1"/>
<circle cx="196" cy="28" r="4" fill="white" fill-opacity="0.1"/>
<circle cx="196" cy="52" r="4" fill="#EF8456"/>
<circle cx="196" cy="76" r="4" fill="white" fill-opacity="0.1"/>
<circle cx="196" cy="100" r="4" fill="white" fill-opacity="0.1"/>
<circle cx="220" cy="4" r="4" fill="white" fill-opacity="0.1"/>
<circle cx="220" cy="28" r="4" fill="white" fill-opacity="0.1"/>
<circle cx="220" cy="52" r="4" fill="white" fill-opacity="0.1"/>
<circle cx="220" cy="76" r="4" fill="white" fill-opacity="0.1"/>
<circle cx="220" cy="100" r="4" fill="white" fill-opacity="0.1"/>
<circle cx="244" cy="4" r="4" fill="white" fill-opacity="0.1"/>
<circle cx="244" cy="28" r="4" fill="#EF8456"/>
<circle cx="244" cy="52" r="4" fill="white" fill-opacity="0.1"/>
<circle cx="244" cy="76" r="4" fill="white" fill-opacity="0.1"/>
<circle cx="244" cy="100" r="4" fill="white" fill-opacity="0.1"/>
<circle cx="268" cy="4" r="4" fill="white" fill-opacity="0.1"/>
<circle cx="268" cy="28" r="4" fill="white" fill-opacity="0.1"/>
<circle cx="268" cy="52" r="4" fill="white" fill-opacity="0.1"/>
<circle cx="268" cy="76" r="4" fill="#EF8456"/>
<circle cx="268" cy="100" r="4" fill="white" fill-opacity="0.1"/>
<circle cx="292" cy="4" r="4" fill="white" fill-opacity="0.1"/>
<circle cx="292" cy="28" r="4" fill="white" fill-opacity="0.1"/>
<circle cx="292" cy="52" r="4" fill="white" fill-opacity="0.1"/>
<circle cx="292" cy="76" r="4" fill="white" fill-opacity="0.1"/>
<circle cx="292" cy="100" r="4" fill="white" fill-opacity="0.1"/>
</svg>
