<svg width="264" height="114" viewBox="0 0 264 114" fill="none" xmlns="http://www.w3.org/2000/svg">
<rect x="93" y="43" width="78" height="28" rx="5" fill="#171717" stroke="#457EE8" stroke-width="2"/>
<g opacity="0.5">
<rect x="91" width="80" height="30" rx="6" fill="#171717"/>
<rect x="91.5" y="0.5" width="79" height="29" rx="5.5" stroke="white" stroke-opacity="0.1"/>
</g>
<g opacity="0.5">
<rect y="42" width="80" height="30" rx="6" fill="#171717"/>
<rect x="0.5" y="42.5" width="79" height="29" rx="5.5" stroke="white" stroke-opacity="0.1"/>
</g>
<g opacity="0.5">
<rect x="184" y="42" width="80" height="30" rx="6" fill="#171717"/>
<rect x="184.5" y="42.5" width="79" height="29" rx="5.5" stroke="white" stroke-opacity="0.1"/>
</g>
<g opacity="0.3">
<rect x="184" width="80" height="30" rx="6" fill="#171717"/>
<rect x="184.5" y="0.5" width="79" height="29" rx="5.5" stroke="white" stroke-opacity="0.1"/>
</g>
<g opacity="0.3">
<rect width="80" height="30" rx="6" fill="#171717"/>
<rect x="0.5" y="0.5" width="79" height="29" rx="5.5" stroke="white" stroke-opacity="0.1"/>
</g>
<g opacity="0.3">
<rect y="84" width="80" height="30" rx="6" fill="#171717"/>
<rect x="0.5" y="84.5" width="79" height="29" rx="5.5" stroke="white" stroke-opacity="0.1"/>
</g>
<g opacity="0.3">
<rect x="184" y="84" width="80" height="30" rx="6" fill="#171717"/>
<rect x="184.5" y="84.5" width="79" height="29" rx="5.5" stroke="white" stroke-opacity="0.1"/>
</g>
<g opacity="0.5">
<rect x="92" y="84" width="80" height="30" rx="6" fill="#171717"/>
<rect x="92.5" y="84.5" width="79" height="29" rx="5.5" stroke="white" stroke-opacity="0.1"/>
</g>
<path fill-rule="evenodd" clip-rule="evenodd" d="M169.52 32.146C170.292 32.0843 171.025 31.7807 171.614 31.2784C172.28 30.7115 173.126 30.4001 174 30.4001C174.874 30.4001 175.72 30.7115 176.386 31.2784C176.975 31.7807 177.708 32.0843 178.48 32.146C179.351 32.2156 180.17 32.5935 180.788 33.2119C181.406 33.8303 181.784 34.6487 181.854 35.5204C181.915 36.292 182.219 37.0252 182.722 37.6144C183.288 38.28 183.6 39.1257 183.6 40C183.6 40.8743 183.288 41.72 182.722 42.3856C182.219 42.9749 181.916 43.7077 181.854 44.4796C181.784 45.3513 181.406 46.1697 180.788 46.7881C180.17 47.4064 179.351 47.7843 178.48 47.854C177.708 47.9156 176.975 48.2192 176.386 48.7216C175.72 49.2885 174.874 49.5998 174 49.5998C173.126 49.5998 172.28 49.2885 171.614 48.7216C171.025 48.2192 170.292 47.9156 169.52 47.854C168.649 47.7843 167.83 47.4064 167.212 46.7881C166.594 46.1697 166.216 45.3513 166.146 44.4796C166.084 43.7077 165.781 42.9749 165.278 42.3856C164.711 41.72 164.4 40.8743 164.4 40C164.4 39.1257 164.711 38.28 165.278 37.6144C165.781 37.0251 166.084 36.2923 166.146 35.5204C166.216 34.6487 166.594 33.8303 167.212 33.2119C167.83 32.5935 168.649 32.2156 169.52 32.146ZM178.448 38.4484C178.667 38.2221 178.788 37.9189 178.785 37.6043C178.782 37.2897 178.656 36.9887 178.434 36.7662C178.211 36.5437 177.91 36.4175 177.596 36.4148C177.281 36.412 176.978 36.533 176.752 36.7516L172.8 40.7032L171.248 39.1516C171.022 38.933 170.719 38.812 170.404 38.8148C170.09 38.8175 169.789 38.9437 169.566 39.1662C169.344 39.3887 169.218 39.6897 169.215 40.0043C169.212 40.3189 169.333 40.6221 169.552 40.8484L171.952 43.2484C172.177 43.4733 172.482 43.5997 172.8 43.5997C173.118 43.5997 173.423 43.4733 173.648 43.2484L178.448 38.4484Z" fill="#457EE8"/>
</svg>
