<svg width="32" height="32" viewBox="0 0 32 32" fill="none" xmlns="http://www.w3.org/2000/svg">
    <rect width="32" height="32" rx="16" fill="#232327"/>
    <path d="M16.278 4C16.4701 4 16.6623 4.00802 16.8557 4.01203C17.0492 4.01605 17.24 4.03878 17.4335 4.05215C18.2079 4.12506 18.9743 4.26827 19.7232 4.48005C21.2537 4.90583 22.6814 5.64353 23.9184 6.64765C25.1747 7.67047 26.192 8.96026 26.8979 10.4252C27.6038 11.8901 27.9809 13.494 28.0024 15.1228C28.0024 15.3488 28.0024 15.5748 27.9918 15.7994C17.8601 15.552 16.1574 13.9808 15.8725 4H16.278ZM4.73646 11.9657C5.26572 10.5117 6.06893 9.17486 7.10174 8.02897C9.18533 5.72613 12.0548 4.3036 15.1344 4.0468C15.3186 4.03076 15.5108 4.02273 15.7016 4.0107H15.7572C15.475 13.8578 13.8093 15.5119 4.01164 15.7901C4.05139 14.4846 4.29603 13.1938 4.73646 11.9657V11.9657ZM11.8283 27.4397C10.3164 26.9309 8.92796 26.1058 7.75363 25.0184C6.5793 23.9311 5.64555 22.6059 5.01341 21.1295C4.30458 19.4813 3.96002 17.6972 4.00369 15.901C13.91 16.1805 15.5055 17.8641 15.7612 27.9893C14.4282 28.0448 13.0962 27.8587 11.8283 27.4397V27.4397ZM27.096 19.7963C25.9032 22.7091 23.7327 25.1053 20.9648 26.5652C19.5813 27.2995 18.0731 27.7645 16.5191 27.9358C16.3018 27.9585 16.0832 27.9746 15.8646 27.9853C16.1296 17.7424 17.7581 16.1404 27.9865 15.8917C27.9078 17.2343 27.6068 18.5541 27.096 19.7963V19.7963Z" fill="white" fill-opacity="0.95"/>
</svg>
    