<svg width="2244" height="2319" viewBox="0 0 2244 2319" fill="none" xmlns="http://www.w3.org/2000/svg">
  <rect width="2244" height="2319" rx="1122" fill="#232327"/>
  <path fill-rule="evenodd" clip-rule="evenodd" d="M1168 231C1205 232 1324 234 1419 273C1514 312 1605 415 1605 415C1645 422 1705 434 1777 467C1849 500 1917 552 1944 589C1971 626 1985 651 1985 704C1985 757 1977 783 1964 806C1953 827 1926 847 1926 847C1944 848 1975 859 1983 871C1991 884 2006 898 1973 1028C1936 1173 1862 1279 1862 1279C1862 1279 1883 1297 1947 1379C2011 1461 2026 1534 2018 1570C2010 1607 1967 1710 1826 1842C1613 2042 1413 2058 1338 2071C1194.88 2093.48 1049.12 2093.48 906 2071C831 2058 631 2042 418 1842C277 1710 234 1607 226 1570C218 1534 233 1461 297 1379C361 1297 382 1279 382 1279C382 1279 346 1200 309 1055C276 925 313 846 321 833C329 821 356 799 374 798C374 798 341 766 328 745C315 726 303 694 307 647C309 622 322 587 353 550C382 515 402 492 473 457C552 418 666 386 794 377C794 377 820 329 887 295C951 263 976 253 1041 240C1078 232 1131 230 1168 231Z" fill="#F0F0F0"/>
  <path d="M331 822L321 833C313 846 276 925 309 1055C346 1200 382 1279 382 1279C382 1279 374 1286 354 1309C369 1309 380 1307 385 1302L417 1270C426 1261 429 1257 428 1248C427 1233 413 1110 412 1088C412 1071 414 1062 426 1049C442 1030 516 969 537 951C543 947 536 941 536 941C480.335 882.695 409.237 841.423 331 822V822ZM1968 872C1922 872 1844 882 1760 937C1760 937 1753 941 1758 947C1774 966 1829 1033 1843 1054C1853 1069 1853 1078 1851 1095C1848 1116 1809 1227 1806 1242C1804 1251 1805 1257 1814 1265L1848 1296C1854 1301 1869 1305 1888 1307L1862 1279C1862 1279 1936 1173 1973 1028C2005 903 1992 885 1984 873L1968 872Z" fill="#F0F0F0"/>
  <path d="M1153 231C1060.04 226.478 967.731 248.688 887.001 295C820.001 329 794.001 377 794.001 377C666.001 386 552.001 418 473.001 457C402.001 492 382.001 515 353.001 550C322.001 587 309.001 622 307.001 647C303.001 694 315.001 726 328.001 745C341.001 766 374.001 798 374.001 798H373.001C488.001 813 557.001 844 616.001 879C679.001 917 679.001 920 714.001 983C749.001 1046 759.001 1085 759.001 1085C886.001 1077 1097 1079 1097 1079H1147C1147 1079 1386 1078 1514 1086C1514 1086 1521 1046 1556 983C1591 920 1598 910 1671 887C1736 867 1792 849 1926 847C1926 847 1953 827 1964 806C1977 783 1985 757 1985 704C1985 651 1971 626 1944 589C1917 552 1849 500 1777 467C1705 434 1645 422 1605 415C1605 415 1514 312 1419 273C1324 234 1205 232 1168 231H1153Z" fill="#232327"/>
  <path fill-rule="evenodd" clip-rule="evenodd" d="M1082 895C915 899 716 920 716 920C741 958 779 1045 779 1045C906 1038 1080 1036 1080 1036H1164C1164 1036 1364 1038 1491 1045C1491 1045 1524 955 1559 920C1559 920 1329 899 1162 895H1082Z" fill="#F0F0F0"/>
  <path fill-rule="evenodd" clip-rule="evenodd" d="M1157 868C1328 870 1436 880 1584 893C1584 893 1637 862 1738 845C1831 829 1873 840 1901 841C1901 841 1961 804 1959 710C1957 660 1945 636 1919 600C1894 565 1818 515 1749 483C1680 451 1631 443 1592 436C1592 436 1497 335 1406 297C1315 259 1201 257 1165 257C1081.22 252.436 997.818 271.125 924 311C863 340 832 383 824 398C816 414 798 471 814 519C828 559 859 593 874 605C880 610 879 617 879 617L862 633C862 634 856 636 852 633C829 617 785 575 768 527C751 480 765 432 778 406C682 411 591 432 499 473C439 500 409 529 382 560C353 593 338 625 337 653C336 697 343 719 358 740L397 793C453 791 478 792 545 816C600 836 639 856 693 894C693 894 986 866 1157 868Z" fill="#F0F0F0"/>
  <path d="M362 785L374 798C356 799 329 821 321 833C313 846 276 925 309 1055C346 1200 382 1279 382 1279C382 1279 361 1297 297 1379C233 1461 218 1534 226 1570C234 1607 277 1710 418 1842C631 2042 831 2058 906 2071C1049.15 2093.1 1194.85 2093.1 1338 2071C1413 2058 1613 2042 1826 1842C1967 1710 2010 1607 2018 1570C2026 1534 2011 1461 1947 1379C1883 1297 1862 1279 1862 1279C1862 1279 1936 1173 1973 1028C2006 898 1991 884 1983 871C1975 859 1944 848 1926 847L1903 846C1802 845 1742 862 1742 862C1912 848 1955 870 1963 882C1971 894 1977 910 1945 1036C1909 1177 1831 1281 1831 1281C1831 1281 1857 1301 1919 1380C1980 1460 1996 1527 1988 1563C1981 1598 1939 1699 1802 1827C1596 2021 1402 2036 1330 2050C1191.19 2071.9 1049.81 2071.9 911 2050C839 2036 645 2021 439 1827C302 1699 260 1598 253 1563C245 1527 260 1461 321 1381C383 1302 404 1284 404 1284C404 1284 369 1203 333 1062C301 936 333 858 341 846C349 834 368 792 489 818C489 818 407 798 362 785Z" fill="#232327"/>
  <path fill-rule="evenodd" clip-rule="evenodd" d="M1265 1397L1283 1422C1287 1428 1289 1427 1295 1424C1301 1421 1321 1405 1348 1388C1375 1371 1408 1363 1451 1354C1494 1346 1521 1349 1608 1348C1620 1348 1620 1344 1621 1340V1314C1621 1307 1619 1306 1610 1303C1601 1301 1565 1293 1493 1284C1421 1275 1382 1288 1360 1298C1335 1310 1285 1365 1272 1380C1263 1391 1263 1394 1265 1397ZM966.001 1417L981.001 1396C985.001 1390 984.001 1389 981.001 1384C978.001 1379 956.001 1345 919.001 1312C882.001 1279 869.001 1277 832.001 1269C795.001 1261 765.001 1262 729.001 1269C693.001 1276 656.001 1288 631.001 1289C619.001 1290 619.001 1296 619.001 1302L618.001 1331C618.001 1337 617.001 1340 629.001 1338C641.001 1336 664.001 1329 742.001 1339C820.001 1350 834.001 1360 878.001 1376C922.001 1393 944.001 1410 955.001 1416C964.001 1421 963.001 1420 966.001 1417Z" fill="#232327"/>
  <path fill-rule="evenodd" clip-rule="evenodd" d="M1126 1741C1145 1751 1171 1765 1204 1777C1237 1789 1269 1799 1313 1799C1361 1799 1390 1798 1417 1780C1444 1762 1461 1745 1474 1729C1487 1713 1486 1696 1486 1684C1486 1672 1480 1639 1478 1629C1476 1620 1474 1619 1466 1619C1458 1619 1441 1623 1435 1626C1429 1629 1429 1630 1432 1642C1435 1654 1441 1682 1438 1702C1436 1718 1417 1741 1382 1758C1347 1776 1291 1770 1240 1758C1189 1746 1170 1735 1158 1726C1146 1717 1143 1712 1142 1703C1140.79 1695.05 1140.13 1687.04 1140 1679C1140 1674 1139 1671 1143 1670C1164 1665 1187 1635 1188 1631C1189 1627 1189 1626 1195 1624C1201 1623 1207 1624 1225 1615C1243 1607 1251 1591 1251 1579C1251 1568 1239 1557 1225 1550C1211 1544 1187 1544 1174 1548C1161 1553 1148 1556 1137 1557C1127.01 1557.7 1116.99 1557.7 1107 1557C1096 1557 1083 1553 1070 1548C1057 1544 1033 1544 1019 1550C1005 1557 993 1568 993 1579C993 1591 1001 1607 1019 1615C1037 1624 1043 1623 1049 1624C1055 1626 1055 1627 1056 1631C1056 1635 1079 1665 1101 1670C1104 1671 1104 1675 1104 1679C1103.88 1687.04 1103.22 1695.06 1102 1703C1100 1712 1098 1717 1086 1726C1074 1735 1055 1746 1004 1758C952 1771 896 1776 862 1758C827 1741 808 1718 806 1702C803 1682 809 1654 812 1642C814 1630 815 1629 809 1626L778 1619C769 1619 768 1620 766 1629C764 1639 757 1672 758 1684C758 1696 757 1713 770 1729C782 1745 799 1762 827 1780C854 1798 883 1799 931 1799C974 1799 1007 1789 1040 1777C1066.97 1767.22 1093.06 1755.18 1118 1741C1122 1739 1122 1739 1126 1741Z" fill="#232327"/>
  <path fill-rule="evenodd" clip-rule="evenodd" d="M1527 1599C1528 1604 1533 1609 1541 1603C1549 1597 1643 1531 1672 1514C1701 1498 1748 1482 1788 1473C1828 1465 1864 1456 1871 1454C1878 1453 1877 1449 1874 1444C1868.78 1436.97 1862.73 1430.59 1856 1425C1851 1421 1849 1421 1839 1422C1829 1424 1769 1436 1726 1447C1683 1458 1660 1467 1621 1492C1582 1517 1535 1561 1527 1568C1522 1573 1521 1574 1522 1579L1527 1599ZM1537 1648L1539 1664C1540 1668 1541 1671 1547 1670C1553 1669 1643 1650 1688 1644C1733 1638 1754 1638 1793 1640C1832 1642 1861 1646 1869 1647C1875 1648 1876 1647 1879 1641L1886 1624C1888 1619 1888 1614 1880 1612C1872 1611 1820 1603 1772 1601C1724 1599 1681 1603 1648 1611C1615 1619 1552 1638 1545 1640C1538 1642 1537 1643 1537 1648ZM1539 1714L1538 1733C1538 1738 1538 1739 1544 1740C1550 1742 1603 1755 1627 1764C1651 1773 1673 1785 1702 1800L1763 1835C1768 1838 1771 1837 1774 1834L1790 1818C1794 1814 1794 1811 1789 1807L1717 1763C1686 1746 1663 1737 1636 1728C1609 1719 1554 1710 1547 1709C1540 1708 1539 1711 1539 1714ZM717 1599C716 1604 712 1609 703 1603C695 1597 601 1530 572 1514C544 1498 496 1481 456 1473L373 1454C366 1452 367 1448 370 1444C375.222 1436.97 381.265 1430.59 388 1425C393 1421 396 1420 405 1422C415 1423 475 1436 518 1447C562 1458 584 1467 623 1492C663 1517 709 1561 717 1568C723 1572 724 1573 722 1579L717 1599ZM707 1648L705 1664C705 1668 703 1671 697 1670C691 1669 601 1650 556 1644C511 1638 490 1638 451 1640C413 1642 383 1646 375 1647C369 1648 368 1647 365 1641L358 1624C356 1618 356 1614 364 1612C372 1611 424 1603 472 1601C520 1599 563 1603 596 1611C630 1619 692 1638 699 1640C707 1642 708 1643 707 1648ZM705 1714L706 1733C707 1738 706 1739 700 1740C695 1742 642 1755 617 1764C593 1773 571 1785 542 1800L481 1835C476 1838 473 1837 470 1834L454 1818C450 1815 450 1811 455 1807L527 1763C558 1746 581 1737 608 1728C635 1719 691 1710 697 1709C704 1708 705 1711 705 1714Z" fill="#232327"/>
  </svg>
  