<svg width="25" height="24" viewBox="0 0 25 24" fill="none" xmlns="http://www.w3.org/2000/svg">
<path fill-rule="evenodd" clip-rule="evenodd" d="M7.8667 12C7.8667 11.3635 8.11956 10.753 8.56964 10.3029C9.01973 9.85283 9.63018 9.59998 10.2667 9.59998H19.8667C20.5032 9.59998 21.1137 9.85283 21.5638 10.3029C22.0138 10.753 22.2667 11.3635 22.2667 12V16.8C22.2667 17.4365 22.0138 18.0469 21.5638 18.497C21.1137 18.9471 20.5032 19.2 19.8667 19.2H10.2667C9.63018 19.2 9.01973 18.9471 8.56964 18.497C8.11956 18.0469 7.8667 17.4365 7.8667 16.8V12ZM15.0667 16.8C15.7032 16.8 16.3137 16.5471 16.7638 16.097C17.2138 15.6469 17.4667 15.0365 17.4667 14.4C17.4667 13.7635 17.2138 13.153 16.7638 12.7029C16.3137 12.2528 15.7032 12 15.0667 12C14.4302 12 13.8197 12.2528 13.3696 12.7029C12.9196 13.153 12.6667 13.7635 12.6667 14.4C12.6667 15.0365 12.9196 15.6469 13.3696 16.097C13.8197 16.5471 14.4302 16.8 15.0667 16.8Z" fill="#27AE60"/>
<path d="M3.76972 5.50299C4.2198 5.05291 4.83025 4.80005 5.46677 4.80005H15.0668C15.7033 4.80005 16.3137 5.05291 16.7638 5.50299C17.2139 5.95308 17.4668 6.56353 17.4668 7.20005H5.46677V14.4C4.83025 14.4 4.2198 14.1472 3.76972 13.6971C3.31963 13.247 3.06677 12.6366 3.06677 12V7.20005C3.06677 6.56353 3.31963 5.95308 3.76972 5.50299Z" fill="#27AE60" fill-opacity="0.5"/>
</svg>
