<svg width="24" height="24" viewBox="0 0 24 24" fill="none" xmlns="http://www.w3.org/2000/svg">
<path d="M10.4484 8.75163C10.2221 8.53304 9.91894 8.41208 9.60431 8.41482C9.28967 8.41755 8.9887 8.54375 8.76621 8.76624C8.54372 8.98873 8.41751 9.28971 8.41478 9.60434C8.41205 9.91898 8.533 10.2221 8.75159 10.4484L11.1516 12.8484C11.3766 13.0734 11.6818 13.1998 12 13.1998C12.3182 13.1998 12.6234 13.0734 12.8484 12.8484L15.2484 10.4484C15.467 10.2221 15.5879 9.91898 15.5852 9.60434C15.5825 9.28971 15.4563 8.98873 15.2338 8.76624C15.0113 8.54375 14.7103 8.41755 14.3957 8.41482C14.081 8.41208 13.7779 8.53304 13.5516 8.75163L13.2 9.10322V3.60002C13.2 3.28176 13.0736 2.97654 12.8485 2.7515C12.6235 2.52645 12.3182 2.40002 12 2.40002C11.6817 2.40002 11.3765 2.52645 11.1515 2.7515C10.9264 2.97654 10.8 3.28176 10.8 3.60002V9.10322L10.4484 8.75163Z" fill="#F2C94C" fill-opacity="0.5"/>
<path d="M3.59998 5.99998C3.59998 5.36346 3.85283 4.75301 4.30292 4.30292C4.75301 3.85283 5.36346 3.59998 5.99998 3.59998H7.19998C7.51824 3.59998 7.82346 3.7264 8.0485 3.95145C8.27355 4.17649 8.39998 4.48172 8.39998 4.79998C8.39998 5.11824 8.27355 5.42346 8.0485 5.6485C7.82346 5.87355 7.51824 5.99998 7.19998 5.99998H5.99998V14.4H8.39998L9.59998 16.8H14.4L15.6 14.4H18V5.99998H16.8C16.4817 5.99998 16.1765 5.87355 15.9514 5.6485C15.7264 5.42346 15.6 5.11824 15.6 4.79998C15.6 4.48172 15.7264 4.17649 15.9514 3.95145C16.1765 3.7264 16.4817 3.59998 16.8 3.59998H18C18.6365 3.59998 19.2469 3.85283 19.697 4.30292C20.1471 4.75301 20.4 5.36346 20.4 5.99998V18C20.4 18.6365 20.1471 19.2469 19.697 19.697C19.2469 20.1471 18.6365 20.4 18 20.4H5.99998C5.36346 20.4 4.75301 20.1471 4.30292 19.697C3.85283 19.2469 3.59998 18.6365 3.59998 18V5.99998Z" fill="#F2C94C"/>
</svg>
