<svg width="25" height="24" viewBox="0 0 25 24" fill="none" xmlns="http://www.w3.org/2000/svg">
<path d="M2.7334 13.2C2.7334 12.5635 2.98625 11.953 3.43634 11.5029C3.88643 11.0528 4.49688 10.8 5.1334 10.8H19.5334C20.1699 10.8 20.7804 11.0528 21.2305 11.5029C21.6805 11.953 21.9334 12.5635 21.9334 13.2V18C21.9334 18.6365 21.6805 19.247 21.2305 19.697C20.7804 20.1471 20.1699 20.4 19.5334 20.4H5.1334C4.49688 20.4 3.88643 20.1471 3.43634 19.697C2.98625 19.247 2.7334 18.6365 2.7334 18V13.2Z" fill="#F2994A"/>
<path d="M7.88489 3.95145C8.10994 3.7264 8.41516 3.59998 8.73342 3.59998H15.9334C16.2517 3.59998 16.5569 3.7264 16.7819 3.95145C17.007 4.17649 17.1334 4.48172 17.1334 4.79998C17.1334 5.11824 17.007 5.42346 16.7819 5.6485C16.5569 5.87355 16.2517 5.99998 15.9334 5.99998H8.73342C8.41516 5.99998 8.10994 5.87355 7.88489 5.6485C7.65985 5.42346 7.53342 5.11824 7.53342 4.79998C7.53342 4.48172 7.65985 4.17649 7.88489 3.95145Z" fill="#F2994A" fill-opacity="0.5"/>
<path d="M5.48489 7.55145C5.25985 7.77649 5.13342 8.08172 5.13342 8.39998C5.13342 8.71824 5.25985 9.02346 5.48489 9.2485C5.70994 9.47355 6.01516 9.59998 6.33342 9.59998H18.3334C18.6517 9.59998 18.9569 9.47355 19.1819 9.2485C19.407 9.02346 19.5334 8.71824 19.5334 8.39998C19.5334 8.08172 19.407 7.77649 19.1819 7.55145C18.9569 7.3264 18.6517 7.19998 18.3334 7.19998H6.33342C6.01516 7.19998 5.70994 7.3264 5.48489 7.55145Z" fill="#F2994A" fill-opacity="0.5"/>
</svg>
