<svg width="24" height="24" viewBox="0 0 24 24" fill="none" xmlns="http://www.w3.org/2000/svg">
<path d="M6.00005 14.4C6.00005 14.7182 6.12648 15.0234 6.35152 15.2485C6.57657 15.4735 6.88179 15.6 7.20005 15.6C7.51831 15.6 7.82353 15.4735 8.04858 15.2485C8.27362 15.0234 8.40005 14.7182 8.40005 14.4V7.69676L9.95165 9.24836C10.178 9.46695 10.4811 9.58791 10.7957 9.58517C11.1104 9.58244 11.4113 9.45624 11.6338 9.23375C11.8563 9.01126 11.9825 8.71028 11.9853 8.39565C11.988 8.08101 11.867 7.77789 11.6484 7.55156L8.04845 3.95156C7.82342 3.7266 7.51825 3.60022 7.20005 3.60022C6.88185 3.60022 6.57668 3.7266 6.35165 3.95156L2.75165 7.55156C2.53306 7.77789 2.41211 8.08101 2.41484 8.39565C2.41757 8.71028 2.54378 9.01126 2.76627 9.23375C2.98876 9.45624 3.28973 9.58244 3.60437 9.58517C3.919 9.58791 4.22213 9.46695 4.44845 9.24836L6.00005 7.69676V14.4Z" fill="#1AA168"/>
<path d="M17.6486 8.75137C17.8736 8.97642 18 9.28164 18 9.5999V16.3031L19.5516 14.7515C19.7779 14.5329 20.0811 14.412 20.3957 14.4147C20.7103 14.4174 21.0113 14.5436 21.2338 14.7661C21.4563 14.9886 21.5825 15.2896 21.5852 15.6042C21.588 15.9189 21.467 16.222 21.2484 16.4483L17.6484 20.0483C17.4234 20.2733 17.1182 20.3996 16.8 20.3996C16.4818 20.3996 16.1767 20.2733 15.9516 20.0483L12.3516 16.4483C12.133 16.222 12.0121 15.9189 12.0148 15.6042C12.0175 15.2896 12.1438 14.9886 12.3662 14.7661C12.5887 14.5436 12.8897 14.4174 13.2043 14.4147C13.519 14.412 13.8221 14.5329 14.0484 14.7515L15.6 16.3031V9.5999C15.6 9.28164 15.7265 8.97642 15.9515 8.75137C16.1765 8.52633 16.4818 8.3999 16.8 8.3999C17.1183 8.3999 17.4235 8.52633 17.6486 8.75137Z" fill="white" fill-opacity="0.4"/>
</svg>
